<svg width="76" height="46" viewBox="0 0 76 46" fill="none" xmlns="http://www.w3.org/2000/svg">
<path d="M38.6256 0C38.5539 0.0663186 29.6674 8.27618 37.4406 16.1174C46.2626 9.71958 38.6866 0.0780219 38.6256 0Z" fill="black"/>
<path d="M38.6256 0C38.5539 0.0663186 29.6674 8.27618 37.4406 16.1174C46.2626 9.71958 38.6866 0.0780219 38.6256 0Z" fill="#EBDAC6"/>
<path d="M57.4513 5.89941C57.3581 5.91697 45.8829 8.15425 48.9825 19.1846H48.9843C59.5649 18.4765 57.471 5.99889 57.4513 5.89746V5.89941Z" fill="#EBDAC6"/>
<path d="M71.169 21.3433C71.0776 21.3062 60.1241 16.9623 57.7075 28.1916C67.1784 33.3703 71.1349 21.4408 71.169 21.3413V21.3433Z" fill="#EBDAC6"/>
<path d="M75.7083 42.0693C75.651 41.9893 68.213 32.2229 60.9131 40.5888C66.6874 50.2616 75.6384 42.1356 75.7083 42.0693Z" fill="#EBDAC6"/>
<path d="M19.6466 5.18164C19.7363 5.21675 30.7274 9.44749 26.0269 19.7854C15.6919 17.2224 19.6161 5.27917 19.6466 5.18164Z" fill="#EBDAC6"/>
<path d="M5.42139 19.8515C5.51461 19.832 16.9521 17.3822 17.7445 28.8845H17.7463C17.7463 28.8845 17.7463 28.8845 17.7445 28.8845C7.64794 32.4072 5.43931 19.951 5.42139 19.8496V19.8515Z" fill="#EBDAC6"/>
<path d="M0.00179241 40.3199H0V40.316H0.00179241C0.073501 40.2497 8.90979 31.9774 14.8168 41.5546H14.8204C14.8204 41.5546 14.8204 41.5546 14.8168 41.5546C14.8204 41.5546 14.8186 41.5546 14.8204 41.5546H14.8168C7.63517 50.0376 0.0627447 40.396 0.00179241 40.316V40.3199Z" fill="#EBDAC6"/>
</svg>
