<svg width="90" height="85" viewBox="0 0 90 85" fill="none" xmlns="http://www.w3.org/2000/svg">
<path d="M49.9303 24.7108C49.1948 28.7674 46.714 32.6331 44.765 32.6331C42.9404 32.6331 40.3323 28.752 39.6081 24.7108C38.8387 20.4111 41.9164 16.7793 44.765 16.7793C47.6135 16.7793 50.7082 20.4142 49.9303 24.7108Z" fill="#CB6C8F"/>
<path d="M18.9494 69.2504C31.3592 69.3304 39.8172 74.3873 44.7675 79.1179C42.513 72.9315 38.5273 67.5945 32.8782 64.6583H32.8697C32.072 64.2336 31.2375 63.8704 30.3663 63.5595C28.4201 62.8516 26.3127 62.4207 24.0327 62.2976C23.6621 62.2761 23.2916 62.2668 22.9012 62.2668C16.0188 62.2361 8.1379 65.0923 0.124023 73.2669C2.66425 72.0358 8.04455 71.2694 17.6623 76.1939C24.0242 79.4533 31.9532 84.0547 44.7703 84.0547C38.1397 73.2669 25.5631 69.4935 18.9522 69.2504H18.9494Z" fill="#EBDAC6"/>
<path d="M35.9021 60.0898C35.1242 61.2194 34.0663 62.3705 32.8782 62.9645V62.9553C33.8145 62.2997 34.8894 61.3302 35.9021 60.0898Z" fill="black"/>
<path d="M37.3763 57.0124C37.4046 57.3971 34.0666 62.3709 32.8786 62.9649V62.9556C32.1091 57.3971 25.6822 49.1824 23.3173 43.4916C24.7091 48.9701 29.5576 57.1447 30.3666 61.7953C28.4204 61.0905 26.313 60.6565 24.033 60.5334C23.6625 60.5119 23.2919 60.5026 22.9015 60.5026C18.384 54.4978 16.2426 42.1681 21.2778 29.6045C22.3641 37.7884 36.3947 42.3189 37.3791 57.0093L37.3763 57.0124Z" fill="#EBDAC6"/>
<path d="M44.7676 84.0546C57.5847 84.0546 65.5137 79.4533 71.8756 76.1939C81.4934 71.2694 86.8708 72.0358 89.4139 73.2669C81.4 65.0922 73.5191 62.2391 66.6367 62.2668C66.2463 62.2668 65.8758 62.276 65.5052 62.2976C63.2252 62.4176 61.1178 62.8516 59.1716 63.5595C58.3004 63.8734 57.4659 64.2366 56.6682 64.6583H56.6597C51.0106 67.5945 47.0249 72.9314 44.7704 79.1178C49.7236 74.3841 58.1816 69.3304 70.5885 69.2504C63.9749 69.4935 51.401 73.2669 44.7704 84.0546H44.7676Z" fill="#EBDAC6"/>
<path d="M56.6572 62.9651C51.0082 65.9013 47.0224 72.9341 44.7679 79.1205C42.5134 72.9341 38.5277 65.9013 32.8786 62.9651C34.0667 62.3711 35.1218 61.22 35.9026 60.0904C35.9111 60.0689 35.9224 60.0597 35.9393 60.0504C36.2816 59.6257 36.6267 59.1825 36.9407 58.6993V58.69C37.0511 58.5177 37.1642 58.3484 37.266 58.176C38.7766 55.723 39.8544 52.556 39.6111 48.801C39.1387 41.4235 31.7556 34.0183 31.7556 24.5848C31.7556 11.4272 43.4497 1.18424 44.7679 0.15625C44.1088 0.984181 35.7074 11.0332 35.7244 23.3537C35.7329 32.0208 39.7667 35.6126 41.3819 35.4618C44.0522 35.2002 43.0311 29.7125 43.1244 28.3798C42.6209 28.3121 44.5246 28.4783 44.7679 28.4783C45.0112 28.4783 46.1003 28.3274 46.3322 28.2782C46.4256 29.6109 45.4836 35.2002 48.1539 35.4618C49.7663 35.6126 53.803 32.0208 53.8115 23.3537C53.8313 11.0332 45.427 0.984181 44.7679 0.15625C46.0861 1.18424 57.7802 11.4272 57.7802 24.5848C57.7802 34.0183 50.3971 41.4266 49.9247 48.801C49.6843 52.556 50.7592 55.723 52.2698 58.176C52.3716 58.3484 52.4819 58.5177 52.5951 58.69V58.6993C52.9091 59.1825 53.2542 59.6288 53.5965 60.0504C53.6163 60.0597 53.6248 60.072 53.6332 60.0904C54.4112 61.22 55.4691 62.3711 56.6572 62.9651Z" fill="#CB6C8F"/>
<path d="M56.657 62.9553V62.9645C55.4689 62.3705 54.4138 61.2194 53.6331 60.0898C54.6429 61.3302 55.7207 62.2997 56.657 62.9553Z" fill="black"/>
<path d="M66.6368 60.5025C66.2464 60.5025 65.8759 60.5117 65.5053 60.5333C63.2253 60.6533 61.1179 61.0873 59.1717 61.7952C59.9779 57.1446 64.8292 48.9699 66.221 43.4914C63.8561 49.1823 57.4292 57.397 56.6598 62.9555V62.9647C55.4717 62.3707 52.1338 57.3939 52.162 57.0122C53.1465 42.3188 67.1771 37.7882 68.2633 29.6074C73.2985 42.171 71.1572 54.5007 66.6396 60.5056L66.6368 60.5025Z" fill="#EBDAC6"/>
</svg>
