<svg width="81" height="99" viewBox="0 0 81 99" fill="none" xmlns="http://www.w3.org/2000/svg">
<path d="M41.9904 40.502C41.3704 44.4537 39.2789 48.2196 37.6357 48.2196C36.0974 48.2196 33.8986 44.4387 33.2881 40.502C32.6394 36.3134 35.2341 32.7754 37.6357 32.7754C40.0372 32.7754 42.6463 36.3164 41.9904 40.502Z" fill="#CB6C8F"/>
<path d="M15.8713 83.8913C26.3337 83.9692 33.4645 88.8954 37.638 93.5038C35.7373 87.4772 32.377 82.2782 27.6144 79.4178H27.6073C26.9347 79.004 26.2312 78.6502 25.4966 78.3474C23.8559 77.6578 22.0791 77.238 20.1569 77.1181C19.8445 77.0971 19.5321 77.0881 19.203 77.0881C13.4006 77.0581 6.75634 79.8406 0 87.804C2.14161 86.6047 6.67764 85.8581 14.7862 90.6554C20.1498 93.8306 26.8346 98.313 37.6404 98.313C32.0503 87.804 21.4471 84.1281 15.8737 83.8913H15.8713Z" fill="#EBDAC6"/>
<path d="M30.1637 74.9678C29.5078 76.0681 28.6159 77.1895 27.6143 77.7682V77.7592C28.4036 77.1205 29.3099 76.1761 30.1637 74.9678Z" fill="black"/>
<path d="M31.4064 71.9693C31.4303 72.3441 28.6161 77.1893 27.6145 77.768V77.759C26.9658 72.3441 21.5474 64.3417 19.5536 58.7978C20.727 64.1348 24.8146 72.0982 25.4967 76.6287C23.8559 75.942 22.0792 75.5193 20.157 75.3994C19.8446 75.3784 19.5322 75.3694 19.203 75.3694C15.3944 69.5197 13.5891 57.5086 17.8341 45.2695C18.7499 53.242 30.5789 57.6555 31.4088 71.9663L31.4064 71.9693Z" fill="#EBDAC6"/>
<path d="M37.6379 98.313C48.4438 98.313 55.1286 93.8305 60.4921 90.6554C68.6007 85.8581 73.1343 86.6047 75.2783 87.804C68.522 79.8405 61.8778 77.0611 56.0754 77.0881C55.7463 77.0881 55.4338 77.0971 55.1214 77.1181C53.1992 77.235 51.4225 77.6578 49.7817 78.3474C49.0472 78.6532 48.3436 79.007 47.6711 79.4178H47.6639C42.9013 82.2781 39.5411 87.4772 37.6403 93.5037C41.8162 88.8924 48.947 83.9692 59.407 83.8912C53.8312 84.1281 43.2305 87.804 37.6403 98.313H37.6379Z" fill="#EBDAC6"/>
<path d="M47.6617 77.7682C42.8992 80.6285 39.5389 87.4796 37.6381 93.5062C35.7374 87.4796 32.3771 80.6285 27.6145 77.7682C28.6162 77.1895 29.5057 76.0681 30.1639 74.9678C30.1711 74.9468 30.1806 74.9378 30.1949 74.9288C30.4835 74.515 30.7745 74.0833 31.0392 73.6125V73.6035C31.1322 73.4356 31.2276 73.2707 31.3135 73.1028C32.587 70.7132 33.4956 67.6279 33.2905 63.97C32.8922 56.7831 26.6677 49.5692 26.6677 40.3795C26.6677 27.5618 36.5268 17.5835 37.6381 16.582C37.0825 17.3886 29.9994 27.178 30.0137 39.1801C30.0209 47.6233 33.4217 51.1223 34.7834 50.9754C37.0348 50.7206 36.1738 45.3746 36.2525 44.0764C35.828 44.0104 37.433 44.1723 37.6381 44.1723C37.8432 44.1723 38.7614 44.0254 38.957 43.9774C39.0357 45.2757 38.2415 50.7206 40.4928 50.9754C41.8522 51.1223 45.2554 47.6233 45.2626 39.1801C45.2793 27.178 38.1938 17.3886 37.6381 16.582C38.7495 17.5835 48.6085 27.5618 48.6085 40.3795C48.6085 49.5692 42.384 56.7861 41.9857 63.97C41.783 67.6279 42.6893 70.7132 43.9628 73.1028C44.0487 73.2707 44.1417 73.4356 44.2371 73.6035V73.6125C44.5018 74.0833 44.7927 74.518 45.0813 74.9288C45.098 74.9378 45.1052 74.9498 45.1123 74.9678C45.7682 76.0681 46.6601 77.1895 47.6617 77.7682Z" fill="#CB6C8F"/>
<path d="M47.6617 77.7592V77.7682C46.6601 77.1895 45.7705 76.0681 45.1123 74.9678C45.9637 76.1761 46.8723 77.1205 47.6617 77.7592Z" fill="black"/>
<path d="M56.0754 75.3693C55.7462 75.3693 55.4338 75.3783 55.1214 75.3993C53.1992 75.5162 51.4225 75.939 49.7817 76.6286C50.4614 72.0982 54.5514 64.1347 55.7248 58.7978C53.731 64.3416 48.3126 72.344 47.6639 77.7589V77.7679C46.6623 77.1893 43.8481 72.341 43.872 71.9692C44.7019 57.6554 56.5309 53.2419 57.4467 45.2725C61.6917 57.5115 59.8864 69.5226 56.0777 75.3723L56.0754 75.3693Z" fill="#EBDAC6"/>
<path d="M49.5645 0.639648C49.504 0.704254 42.012 8.702 48.5654 16.3406C56.003 10.1081 49.6159 0.715655 49.5645 0.639648Z" fill="black"/>
<path d="M49.5645 0.639648C49.504 0.704254 42.012 8.702 48.5654 16.3406C56.003 10.1081 49.6159 0.715655 49.5645 0.639648Z" fill="#EBDAC6"/>
<path d="M65.436 6.38666C65.3574 6.40377 55.683 8.58324 58.2962 19.3286H58.2977C67.218 18.6389 65.4526 6.48357 65.436 6.38477V6.38666Z" fill="#EBDAC6"/>
<path d="M77.0012 21.4315C76.9241 21.3954 67.6895 17.1637 65.6521 28.1029C73.6368 33.1478 76.9725 21.5265 77.0012 21.4296V21.4315Z" fill="#EBDAC6"/>
<path d="M80.8281 41.6223C80.7797 41.5444 74.5089 32.0303 68.3545 40.1801C73.2227 49.6029 80.7691 41.6869 80.8281 41.6223Z" fill="#EBDAC6"/>
<path d="M33.5636 5.6875C33.6392 5.7217 42.9056 9.84314 38.9427 19.9139C30.2295 17.4171 33.5379 5.78251 33.5636 5.6875Z" fill="#EBDAC6"/>
<path d="M21.5706 19.9784C21.6491 19.9594 31.2919 17.5728 31.9599 28.778H31.9614C31.9614 28.778 31.9614 28.778 31.9599 28.778C23.4477 32.2097 21.5857 20.0753 21.5706 19.9765V19.9784Z" fill="#EBDAC6"/>
<path d="M17.0015 39.918H17V39.9142H17.0015C17.062 39.8496 24.5117 31.7911 29.4917 41.1208H29.4948C29.4948 41.1208 29.4948 41.1208 29.4917 41.1208C29.4948 41.1208 29.4932 41.1208 29.4948 41.1208H29.4917C23.4371 49.3846 17.0529 39.9921 17.0015 39.9142V39.918Z" fill="#EBDAC6"/>
</svg>
