<svg width="1440" height="1540" viewBox="0 0 1440 1540" fill="none" xmlns="http://www.w3.org/2000/svg">
<mask id="mask0_0_1958" style="mask-type:alpha" maskUnits="userSpaceOnUse" x="-10" y="0" width="1453" height="1540">
<path d="M711.071 53.4073C401.656 -35.5069 110.927 4.32239 -10 53.4073V1449.92C157.351 1421.35 488.326 1350.12 733.909 1449.92C1176.06 1629.59 1341.92 1491.68 1443 1449.92V53.4073C1333.68 102.492 988.493 133.128 711.071 53.4073Z" fill="#FFF9F3"/>
</mask>
<g mask="url(#mask0_0_1958)">
<path opacity="0.32" d="M1031.23 671.946C1030.96 631.208 1017.72 595.693 991.425 566.19C963.946 535.356 929.597 519.076 890.088 519.013C810.322 518.885 746.865 586.294 746.508 671.345C746.331 713.48 760.441 749.864 788.061 779.826C815.753 809.865 850.181 824.791 889.014 824.733C928.107 824.674 962.625 809.379 990.254 778.945C1017.13 749.339 1030.85 713.626 1031.23 671.946ZM1035.13 669.158C1035.63 715.356 1020.61 752.371 992.707 782.723C964.216 813.732 928.66 829.397 887.86 829.202C847.465 829.011 812.485 812.745 784.398 782.221C756.445 751.844 742.259 714.481 742.405 671.173C742.549 628.596 756.716 591.907 784.078 561.967C812.924 530.404 848.823 514.054 890.464 514.637C930.834 515.2 965.498 531.502 993.744 562.086C1018.39 588.774 1036.48 629.322 1035.13 669.158Z" fill="#CB6C8F"/>
<path opacity="0.32" d="M1002.32 683.14C1002.05 639.212 991.525 611.335 970.384 587.969C948.306 563.571 921.412 550.8 889.838 550.564C828.104 550.106 776.219 604.585 776.254 671.643C776.29 739.161 826.668 793.053 889.195 793.333C921.365 793.475 949.343 780.52 971.357 755.348C991.681 732.108 1002.84 704.278 1002.32 683.14ZM889.672 546.091C922.652 546.553 950.69 559.538 973.642 584.855C995.636 609.115 1006.8 638.671 1006.68 672.231C1006.55 706.054 995.167 735.804 972.786 760.036C949.626 785.117 921.369 797.616 888.401 797.745C868.819 797.823 850.412 792.531 833.319 782.665C815.957 772.649 801.925 758.471 790.955 740.764C778.147 720.091 771.954 696.992 771.772 672.67C771.627 653.302 775.415 634.163 783.824 616.475C794.724 593.546 810.322 575.252 831.114 562.577C849.123 551.599 868.69 545.799 889.672 546.091Z" fill="#CB6C8F"/>
<path opacity="0.32" d="M806.839 672.125C805.177 721.261 844.286 761.174 888.564 761.158C912.31 761.15 932.573 752.004 949.063 733.789C964.632 716.594 972.394 695.291 972.306 671.589C972.21 646.331 963.317 624.173 946.036 606.741C930.189 590.756 911.243 582.826 889.282 582.453C845.39 581.706 804.747 622.198 806.839 672.125ZM888.796 765.346C841.304 766.174 802.003 723.53 801.97 671.623C801.953 644.994 811.458 621.966 829.068 603.601C845.724 586.231 866.643 577.381 889.652 577.54C912.893 577.702 933.834 586.929 950.401 604.825C967.531 623.328 976.44 645.974 976.474 672.53C976.538 721.904 937.29 766.978 888.796 765.346Z" fill="#CB6C8F"/>
<path opacity="0.32" d="M889.076 728.941C918.642 730.746 943.583 701.264 943.284 671.849C942.952 639.141 919.664 613.487 889.431 613.401C859.659 613.315 835.728 637.415 835.357 671.565C835.012 703.422 859.973 730.234 889.076 728.941ZM947.088 671.72C947.743 704.623 922.655 734.39 889.018 733.925C855.934 733.468 831.367 707.288 831.334 671.304C831.301 636.36 856.701 609.066 889.378 608.997C921.195 608.929 947.996 637.426 947.088 671.72Z" fill="#CB6C8F"/>
<path opacity="0.32" d="M913.061 672.186C914.324 656.414 900.819 644.632 888.986 645.165C875.103 645.789 864.818 654.909 864.805 671.335C864.789 688.815 875.698 697.812 889.13 697.949C902.001 698.081 913.479 686.98 913.061 672.186ZM860.788 671.078C859.461 654.439 876.776 639.495 889.601 640.503C905.261 641.732 917.672 654.652 917.746 671.33C917.815 687.213 906.412 702.281 888.633 702.471C873.259 702.632 859.446 687.405 860.788 671.078Z" fill="#CB6C8F"/>
</g>
</svg>
