<svg width="309" height="211" viewBox="0 0 309 211" fill="none" xmlns="http://www.w3.org/2000/svg">
<path d="M215.69 105.058C212.718 105.058 209.763 104.319 206.982 102.79C199.629 98.7548 193.772 89.6302 191.304 78.3959C188.835 67.1617 189.913 54.5297 194.189 44.614C199.908 31.3755 211.432 24.3607 221.583 27.9208C231.751 31.5074 240.06 45.5106 241.328 61.2281C242.597 76.9455 236.792 93.5859 227.51 100.812C223.895 103.633 219.792 105.058 215.69 105.058ZM199.004 49.3873C195.736 56.9823 194.884 67.0298 196.761 75.6269C198.656 84.224 203.314 91.4762 208.929 94.5616C214.056 97.3834 220.018 96.8032 224.868 93.0321C232.081 87.415 236.583 74.4929 235.592 62.3093C234.602 50.0993 228.153 39.2342 220.262 36.4652C212.37 33.6698 203.419 39.1287 198.986 49.4136L199.004 49.3873Z" fill="#262626"/>
</svg>
