<svg width="33" height="50" viewBox="0 0 33 50" fill="none" xmlns="http://www.w3.org/2000/svg">
<path d="M15.8908 49.0554C15.524 49.0554 15.1572 49.0554 14.7904 48.9964C11.0647 48.5832 7.5514 46.1634 4.84882 42.2385C-0.633548 34.2118 -1.59877 20.4011 2.62883 10.7513C6.85643 1.131 15.6012 -2.70531 22.5314 2.0163C29.4616 6.73792 33.4382 19.2502 31.585 30.4935C29.8284 41.1762 23.0526 49.0849 15.8908 49.0849V49.0554ZM8.13048 36.9858C10.003 39.7302 12.5511 41.4713 15.1379 41.7664C20.3693 42.3861 25.6972 36.5136 26.9713 28.7229C28.2647 20.9323 25.3884 11.9317 20.5817 8.65607C15.7749 5.38045 9.48182 8.15439 6.54759 14.8237C3.61337 21.493 4.30831 31.4379 8.11122 37.0153L8.13048 36.9858Z" fill="#17374B"/>
</svg>
