<svg width="110" height="87" viewBox="0 0 110 87" fill="none" xmlns="http://www.w3.org/2000/svg">
<path d="M89.2336 20.2757C97.7504 17.8784 104.427 20.4954 110.682 26.1842C108.04 25.4974 105.841 24.625 103.579 24.4016C98.6344 23.9127 94.0847 22.2652 89.2336 20.2757ZM140.86 72.4405C140.699 72.31 140.475 72.2115 140.397 72.044C138.39 67.7681 137.22 63.2225 136.222 58.6366C135.592 55.7467 135.343 52.7608 134.241 49.9941C133.528 48.2167 132.598 46.5292 131.657 44.5838C141.754 48.5163 146.881 64.4638 140.86 72.4405ZM3.61827 54.8132C9.4261 71.8759 20.7142 81.8219 37.9923 84.9054C32.0127 84.7415 26.0802 85.4679 20.0955 84.5615C13.9757 83.6342 9.32735 80.5503 5.79684 75.7599C3.20749 72.2433 2.00124 68.114 1.93364 63.6493C1.892 60.7051 2.51605 57.9499 3.61827 54.8132ZM12.3067 45.0529C12.6446 45.8346 12.9878 46.3768 13.1178 46.9659C14.4177 52.9727 17.5634 57.9927 21.567 62.4793C25.3522 66.7234 29.5586 70.5092 34.8986 72.7426C36.9576 73.6031 39.0426 74.4522 41.1848 75.0554C43.3322 75.6591 45.5731 75.894 47.757 76.3887C53.96 77.795 59.9447 79.7362 64.9622 83.8883C65.217 84.0992 65.3938 84.404 65.7266 84.8073C65.1598 84.9341 64.8686 85.0557 64.5723 85.0562C58.8632 85.0677 53.1542 85.0745 47.4399 85.0541C46.8367 85.052 46.2231 84.9148 45.6355 84.7718C41.7828 83.8424 37.9299 82.9235 34.0926 81.9404C31.9348 81.3872 29.7199 80.9181 27.6765 80.0634C21.5462 77.5007 16.5859 73.2587 12.4471 68.184C10.284 65.5299 8.15746 62.6755 7.15385 59.2403C6.63396 57.4782 6.21805 55.6596 5.45892 54.006C4.91815 52.8376 5.16772 51.8951 5.79684 51.1291C7.62709 48.8915 9.5354 46.6957 12.3067 45.0529ZM68.9971 84.9617C64.4267 80.8169 59.2428 77.4047 52.9877 75.9023C49.3273 75.023 45.7187 73.8912 42.0167 73.2618C37.7271 72.5323 34.0094 70.5145 30.5621 68.1934C26.4493 65.4267 22.9345 61.8459 20.002 57.7683C17.3347 54.0529 15.5044 49.9513 14.4956 45.4912C14.1992 44.184 14.5321 43.6487 15.9203 43.2041C17.839 42.5878 19.7888 42.0801 21.7333 41.5248C20.5687 36.8967 20.5323 36.4803 21.0886 34.0512C21.359 35.2421 21.5618 36.4532 21.9154 37.6195C22.8617 40.7557 23.6104 43.9915 25.3419 46.8083C27.6765 50.6052 30.3802 54.1066 33.6611 57.1828C36.9212 60.2407 40.4881 62.7157 44.5697 64.5421C48.4175 66.2642 52.4054 67.5697 56.5338 68.0905C60.3658 68.5753 63.8652 69.8282 67.3385 71.3133C73.1047 73.7779 77.3319 78.213 81.4968 82.6934C81.9855 83.221 82.1415 84.0642 82.5419 84.9617H68.9971ZM116.344 42.6269C119.157 41.6746 121.829 41.8995 124.481 41.9507C126.759 41.995 128.76 42.7715 129.847 44.9314C130.809 46.8538 131.511 48.9092 132.473 50.8358C133.913 53.7361 133.924 56.9782 134.797 60.0174C136.18 64.813 136.669 69.8955 139.685 74.1286C139.908 74.4427 139.861 75.2276 139.617 75.559C137.672 78.2234 135.65 80.8299 132.197 81.9367C130.695 79.2571 129.374 76.5144 128.688 73.5003C127.85 69.822 127.149 66.1081 126.171 62.4689C125.298 59.2153 124.424 55.9283 122.599 53.0207C120.004 48.8779 117.082 44.9548 113.281 41.8922C110.422 39.5858 107.323 37.4342 104.021 35.8677C100.558 34.2255 96.8145 33.1036 92.972 32.4607C90.9754 32.1252 88.9633 31.7855 87.0186 31.2287C82.5677 29.9559 78.299 28.2605 74.7633 25.1254C72.8343 23.4117 70.8897 21.7049 69.0334 19.9094C65.7422 16.7226 63.2516 12.9482 61.6398 8.6689C60.9898 6.93423 59.9343 5.21154 60.1683 3.06206C66.1061 4.42574 70.9053 7.33506 75.0389 11.5189C77.6125 14.1277 79.4534 17.1968 81.1745 20.3802C81.6891 21.3357 81.7515 22.6341 83.1139 23.0647C84.3513 22.4578 85.6304 21.8303 86.7483 21.2807C92.1141 23.5098 97.4332 25.1896 102.955 26.2588C105.55 26.7608 108.118 27.4376 110.645 28.2094C112.611 28.81 114.087 30.1913 114.727 32.1654C115.507 34.5955 116.354 37.0366 116.198 39.6755C116.146 40.5741 116.281 41.4841 116.344 42.6269ZM96.2946 84.9331H85.0844C82.3235 80.4443 78.689 76.9799 74.7113 73.7837C68.8411 69.0659 61.9257 67.0088 54.7452 65.7355C49.8316 64.8646 45.256 63.3039 41.0132 60.7062C37.0823 58.3 33.7963 55.1059 30.8691 51.6295C28.8412 49.2229 27.0889 46.4572 25.7995 43.5855C23.9588 39.4944 23.0125 35.0573 22.035 30.6714C21.7542 29.4059 21.5983 28.0559 21.7022 26.7707C22.0662 22.2308 24.4475 18.5775 27.0578 14.5632C27.5413 15.7069 27.9313 16.4115 28.1393 17.1659C28.7995 19.5233 29.4391 21.8878 29.9902 24.2717C30.5675 26.7556 30.8066 29.3402 31.5968 31.7463C32.9904 35.9664 35.0805 39.8258 37.8831 43.3507C43.0774 49.8746 49.1661 55.0824 57.2721 57.4661C61.4578 58.6976 65.7005 59.7951 69.9849 60.6258C74.2276 61.4503 77.9663 63.4004 81.4032 65.7533C84.9648 68.1902 88.0586 71.2612 90.7051 74.7924C93.0136 77.8628 94.8959 81.0747 96.2946 84.9331ZM98.3275 84.9617C97.8231 83.7156 97.35 82.3704 96.7521 81.082C94.5578 76.337 91.4122 72.3033 87.6789 68.6567C83.1762 64.2624 77.9298 61.2124 72.0283 59.2044C71.55 59.0415 71.0613 58.8892 70.5673 58.789C67.38 58.1393 64.1406 57.6754 61.0054 56.8274C56.2634 55.5442 51.7554 53.7179 47.7726 50.6537C44.0498 47.7847 40.7428 44.5186 38.0495 40.7092C35.6889 37.3648 33.6091 33.8258 33.0995 29.5599C32.8396 27.352 32.1324 25.1922 31.5605 23.0282C30.6766 19.6777 29.7355 16.3419 28.8204 13.0117C32.0909 8.9586 34.2694 7.25808 36.7132 6.94136C36.9679 7.67136 37.3111 8.42199 37.4879 9.21009C38.3509 12.9867 39.027 16.8133 40.0512 20.5438C40.8884 23.5891 41.7881 26.7039 43.2594 29.467C45.75 34.1473 49.1974 38.1877 53.2321 41.6407C56.513 44.4466 60.0695 46.8177 64.1511 48.3942C67.7908 49.7979 71.6229 50.314 75.3457 51.3159C79.3649 52.3987 83.5505 53.027 87.1902 55.2249C90.8247 57.4145 94.1368 59.9981 97.0901 63.0946C101.354 67.5714 104.359 72.7374 106.08 78.6524C106.662 80.664 106.974 82.756 107.442 84.9617H98.3275ZM109.533 84.9524C109.033 83.1333 108.477 81.4858 108.134 79.7946C106.725 72.8147 103.252 66.9671 98.3692 61.933C96.4298 59.9318 94.3448 58.0344 92.1454 56.3302C88.8748 53.7998 85.1572 51.9948 81.242 50.7356C79.027 50.0228 76.6195 49.9269 74.3578 49.3262C69.6626 48.0791 64.8635 47.3093 60.5322 44.721C55.2703 41.5765 51.095 37.404 47.3826 32.6392C44.3617 28.7599 42.8174 24.1793 41.4811 19.5679C40.5192 16.2441 40.1397 12.7536 39.4013 9.35889C39.105 7.99652 38.5434 6.69166 38.0183 5.08821C41.0028 4.14469 43.7741 3.26717 46.8471 2.29639C47.523 5.13357 48.2146 7.68716 48.7241 10.2764C49.6497 14.9543 51.1939 19.3796 53.7572 23.4096C56.9134 28.3628 60.9793 32.4972 65.6953 35.9048C69.1841 38.4268 73.0631 40.3408 77.3267 41.2953C80.9975 42.1161 84.6944 42.8409 88.3185 43.8319C91.9478 44.8254 95.6134 45.8268 98.624 48.3399C99.7158 49.2563 101.057 49.8835 102.128 50.8249C106.106 54.3289 109.756 58.1681 112.247 62.8875C113.916 66.0461 115.086 69.4066 115.663 73.0328C116.297 77.0107 117.571 80.8858 118.6 84.9524H109.533ZM130.575 83.0832C127.518 84.6758 124.216 84.8903 120.868 85.087C119.339 81.9644 118.892 78.7071 118.091 75.5553C117.342 72.596 116.931 69.5929 115.845 66.6691C112.767 58.3809 107.224 52.2521 100.147 47.3041C97.2044 45.2445 94.1004 43.5631 90.5439 42.7297C86.2023 41.7112 81.944 40.2803 77.5659 39.4454C73.8275 38.7315 70.4737 37.1561 67.4943 35.0761C63.1736 32.0615 59.3103 28.379 56.3051 23.98C54.688 21.6137 53.0033 19.1281 52.1506 16.4403C50.7155 11.9168 49.9149 7.18928 48.8281 2.44213C52.0518 0.98723 54.9792 2.37566 57.6725 2.57259C59.2584 6.93757 60.3451 11.1968 62.794 14.9441C64.9051 18.177 67.4632 20.9869 70.2085 23.6737C74.0926 27.4773 78.5642 30.1683 83.7013 32.0041C87.8714 33.4939 92.2389 33.8999 96.4246 35.1001C99.8406 36.0785 103.329 37.2005 106.387 38.9611C110.593 41.3866 114.243 44.719 117.337 48.5043C119.079 50.6365 120.701 52.9758 121.855 55.4644C123.571 59.1605 124.72 63.105 125.511 67.1267C126.14 70.3282 126.493 73.5921 127.861 76.6182C128.786 78.668 129.608 80.7647 130.575 83.0832ZM118.205 40.3763C117.914 31.7975 114.098 24.8994 106.532 20.8376C99.6378 17.1387 95.8318 15.3839 83.6389 20.5871C82.2507 18.3795 80.9352 16.0845 79.4169 13.9312C77.0148 10.5203 73.947 7.82118 70.4997 5.44187C66.7768 2.86867 62.6277 1.38195 58.3172 0.726064C55.5927 0.312015 52.8421 -0.41492 49.8212 0.304627C46.7795 1.02978 43.5922 1.24305 40.5972 2.35525C36.9991 3.69144 33.8431 5.70355 30.8326 8.0928C26.5949 11.4564 23.886 15.8361 21.5514 20.5907C20.5323 22.6613 20.0383 24.8421 19.6639 27.0426C19.1804 29.8741 18.4628 32.7133 18.8217 35.6282C19.0036 37.1447 19.326 38.6443 19.586 40.1791C17.189 41.0609 14.9429 41.7393 12.8266 42.6953C8.52139 44.6365 5.52133 48.0655 3.17627 52.0334C0.76889 56.112 -0.411346 60.6488 0.12941 65.3582C0.72731 70.5317 2.51065 75.2886 6.25435 79.1804C9.41049 82.4554 13.0033 84.871 17.4178 85.9694C19.4924 86.4865 21.5618 87.0016 23.7456 87C56.2893 86.9771 88.8385 87.0042 121.382 86.9666C127.798 86.9593 133.518 84.7092 138.088 80.2517C142.409 76.0406 144.879 70.8239 144.993 64.5755C145.071 60.4656 144.484 56.6234 142.622 52.9043C139.991 47.6485 135.879 44.1231 130.585 41.9147C127.949 40.8168 125.199 39.9704 122.297 40.009C120.992 40.0267 119.692 40.2365 118.205 40.3763Z" fill="#DEBF9B"/>
</svg>
