<svg width="229" height="349" viewBox="0 0 229 349" fill="none" xmlns="http://www.w3.org/2000/svg">
<path fill-rule="evenodd" clip-rule="evenodd" d="M45.3211 34.1701C48.222 30.8452 51.2232 27.7331 54.3133 24.8443L16.2549 83.0284C18.1447 78.3045 20.1774 73.7155 22.3503 69.2868L45.3211 34.1701ZM95.6855 1.40359C96.8122 1.12108 97.9441 0.867535 99.0762 0.639548L0.422166 151.453C0.570567 149.722 0.737164 147.995 0.921229 146.269L95.6855 1.40359ZM125.534 0C126.401 0.131322 127.269 0.276692 128.136 0.439518L0.291415 195.877C0.183966 194.551 0.0889703 193.224 0 191.897L125.534 0ZM149.45 7.65451C150.175 8.01268 150.897 8.38491 151.619 8.7675L5.73529 231.774C5.48883 230.675 5.24459 229.566 5.01038 228.458L149.45 7.65451ZM169.628 21.0321C170.249 21.5554 170.864 22.0915 171.476 22.6312L14.8081 262.129C14.4543 261.193 14.1037 260.253 13.762 259.303L169.628 21.0321ZM186.861 38.9091C187.389 39.5768 187.916 40.2443 188.435 40.9257L26.7747 288.06C26.3289 287.26 25.8922 286.456 25.4556 285.648L186.861 38.9091ZM201.454 60.8228C201.898 61.6229 202.337 62.4266 202.771 63.2361L41.3691 309.975C40.8374 309.306 40.3108 308.638 39.7913 307.957L201.454 60.8228ZM213.422 86.7534C213.775 87.6897 214.123 88.6339 214.465 89.5793L58.6017 327.851C57.981 327.327 57.3654 326.796 56.7531 326.256L213.422 86.7534ZM222.491 117.109C222.741 118.208 222.981 119.312 223.216 120.42L78.7769 341.229C78.052 340.87 77.3292 340.498 76.6103 340.116L222.491 117.109ZM227.938 153.006C228.046 154.333 228.141 155.659 228.227 156.986L102.696 348.889C101.828 348.751 100.961 348.606 100.093 348.443L227.938 153.006ZM227.807 197.426C227.659 199.161 227.489 200.892 227.308 202.614L132.543 347.48C131.417 347.762 130.285 348.016 129.15 348.243L227.807 197.426ZM211.972 265.859C210.084 270.579 208.054 275.163 205.883 279.588L182.899 314.722C180.001 318.042 177.003 321.15 173.912 324.038L211.972 265.859Z" fill="#D8B68E"/>
</svg>
