<svg width="169" height="86" viewBox="0 0 169 86" fill="none" xmlns="http://www.w3.org/2000/svg">
<path d="M168.366 62.738C168.935 65.3233 168.955 66.458 167.857 67.4433C162.427 72.3169 156.893 76.9767 151.701 82.397C148.476 85.7641 146.129 85.3247 143.007 82.0871C137.811 76.6986 132.239 72.1606 126.47 66.9438C119.63 73.1486 112.616 79.513 105.477 85.989C101.675 82.6013 98.0371 79.4246 94.4428 76.1363C91.5619 73.5022 88.7169 70.7727 85.8922 67.9995C84.8747 67.0005 84.0126 66.9996 82.9833 67.9806C77.9989 72.7315 72.995 77.435 67.9715 82.088C66.6225 83.3368 65.1797 84.3471 63.5957 85.6148C56.1468 80.7052 49.7567 72.6113 42.2842 67.0039C38.6948 70.2818 35.1084 73.5614 31.5185 76.8342C28.6343 79.4632 25.7287 82.0407 22.8675 84.7281C21.7226 85.8028 20.6984 85.6114 19.6259 84.6088C13.807 79.1671 7.97849 73.7477 2.16739 68.2853C1.38658 67.5515 0.686563 66.6142 0 65.8297C0.471171 63.3517 1.20876 63.0041 2.408 64.1285C5.98385 67.4828 9.58721 70.7693 13.1754 74.0953C15.9497 76.6668 18.7167 79.2581 21.5173 81.8691C27.0284 76.6471 32.2527 71.256 37.7486 66.6184C42.8131 62.3449 41.8192 61.6334 47.0537 66.6279C52.3948 71.7247 57.8312 76.5896 63.4953 81.8039C70.3688 75.4248 77.341 68.9548 84.4321 62.3732C91.3712 68.7712 98.3591 75.2154 105.472 81.7738C112.489 75.3133 119.493 68.8638 126.542 62.3732C133.47 68.8175 140.278 75.1493 147.294 81.6751C154.392 76.1278 160.933 68.5824 168.366 62.738Z" fill="#CB6C8F"/>
<path d="M147.457 54.6982C145.777 53.2459 143.94 51.7446 142.16 50.1001C137.582 45.8686 133.033 41.5642 128.465 37.3069C127.122 36.0554 125.968 35.8546 124.423 37.3661C119.032 42.6379 113.492 47.5501 107.996 52.5661C107.188 53.3025 106.31 53.8595 105.343 54.5917C102.19 51.8176 98.993 49.0736 95.8406 46.2128C92.5031 43.1838 89.1859 40.099 85.9062 36.9258C84.7373 35.7945 83.8702 36.1198 82.7427 37.1704C76.7393 42.7606 70.6762 48.2032 64.6307 53.6862C64.275 54.0081 63.8841 54.2389 63.3613 54.6209C59.7636 51.434 56.1265 48.2504 52.5148 45C49.8044 42.5598 47.0952 40.1093 44.4465 37.5181C42.9343 36.0383 41.6347 36.0615 40.0961 37.5352C34.4971 42.9014 28.8401 48.126 23.1895 53.3652C22.5769 53.9334 21.8641 54.2484 21.173 54.6973C14.7157 48.7843 8.32745 42.9512 1.95655 37.0734C1.33841 36.5027 0.694485 35.7842 0.320358 34.8838C0.069617 34.2787 0.272634 33.2316 0.272634 31.5887C8.029 37.0897 14.327 44.9914 21.5915 50.6083C28.5614 44.1279 35.5319 37.6468 42.5181 31.151C49.5475 37.6931 56.4368 44.1056 63.5559 50.731C70.4423 44.2653 77.3938 37.7378 84.4715 31.0918C91.4151 37.5858 98.2958 44.0215 105.468 50.7301C112.301 44.3485 119.262 37.8476 126.48 31.1055C133.28 37.4811 140.156 43.9271 147.291 50.6168C154.323 44.9803 160.983 37.7627 168.178 31.6643C168.755 34.8993 168.621 35.5035 167.19 36.8957C165.509 38.5316 163.835 40.1874 162.116 41.7238C157.32 46.0094 152.503 50.2375 147.457 54.6982Z" fill="#CB6C8F"/>
<path d="M63.4914 19.4985C70.476 13.0001 77.3718 6.58503 84.4472 0.00262593C91.4329 6.51724 98.4012 13.0156 105.46 19.5989C112.38 13.128 119.265 6.68975 126.42 0C133.34 6.40732 140.331 12.8791 147.431 19.4521C150.988 16.224 154.462 12.9606 158.004 9.88869C161.419 6.92753 164.44 2.8316 168.311 0.863505C169.337 3.77495 168.103 4.87781 167.102 5.86752C165.254 7.69574 163.314 9.30593 161.415 11.014C157.343 14.679 153.276 18.3578 149.198 22.0073C148.571 22.5687 147.898 23.0116 147.302 23.4665C140.877 17.5955 134.576 11.8328 128.271 6.07947C127.003 4.92244 125.923 4.86241 124.501 6.20479C118.251 12.1075 111.883 17.7208 105.416 23.5669C99.2358 17.8754 93.0349 12.1907 86.8553 6.45457C85.2775 4.99029 84.0316 4.84009 82.2675 6.55673C76.5147 12.1573 70.5634 17.2823 64.6839 22.5781C64.3266 22.9 63.9301 23.1197 63.4656 23.4476C60.3032 20.683 57.0986 17.9552 53.9429 15.1013C50.6021 12.0791 47.2736 9.01837 44.0107 5.80487C42.6741 4.48816 41.5859 5.19969 40.486 6.17651C38.5811 7.86909 36.7401 9.72817 34.8458 11.4509C30.5133 15.3914 26.1651 19.2899 21.6094 23.3986C20.7658 22.7781 19.6938 22.1326 18.715 21.2468C13.2034 16.2548 7.70423 11.2311 2.22855 6.14727C1.44551 5.42035 0.760595 4.38432 0.146951 3.33201C-0.0117826 3.05907 0.185652 2.10719 0.380302 1.61627C0.495845 1.32353 0.982202 1.09611 1.20264 1.22828C2.17807 1.81193 3.17368 2.39731 4.06105 3.23247C8.80025 7.68971 13.5047 12.2345 18.2315 16.7209C19.2131 17.6522 20.2413 18.4676 21.3862 19.4564C24.5239 16.5871 27.6812 13.7271 30.8207 10.8217C34.0527 7.83132 37.3005 4.87614 40.4753 1.74839C42.01 0.2369 43.2153 0.484118 44.7376 1.96815C50.5768 7.66221 56.5091 13.1332 62.411 18.6762C62.7605 19.0041 63.147 19.2384 63.4914 19.4985Z" fill="#CB6C8F"/>
</svg>
